<svg id="visual" viewBox="0 0 900 150" width="900" height="150" xmlns="http://www.w3.org/2000/svg" xmlns:xlink="http://www.w3.org/1999/xlink" version="1.1"><rect x="0" y="0" width="900" height="150" fill="#EFCB68"></rect><path d="M0 77L15 71.5C30 66 60 55 90 56.3C120 57.7 150 71.3 180 70.7C210 70 240 55 270 54.7C300 54.3 330 68.7 360 70.2C390 71.7 420 60.3 450 57.5C480 54.7 510 60.3 540 71.2C570 82 600 98 630 104C660 110 690 106 720 106C750 106 780 110 810 105.7C840 101.3 870 88.7 885 82.3L900 76L900 151L885 151C870 151 840 151 810 151C780 151 750 151 720 151C690 151 660 151 630 151C600 151 570 151 540 151C510 151 480 151 450 151C420 151 390 151 360 151C330 151 300 151 270 151C240 151 210 151 180 151C150 151 120 151 90 151C60 151 30 151 15 151L0 151Z" fill="#f1f2f6" stroke-linecap="round" stroke-linejoin="miter"></path></svg>