<svg id="visual" viewBox="0 0 900 150" width="900" height="150" xmlns="http://www.w3.org/2000/svg" xmlns:xlink="http://www.w3.org/1999/xlink" version="1.1"><rect x="0" y="0" width="900" height="150" fill="transparent"></rect><path d="M0 110L15 109.7C30 109.3 60 108.7 90 106C120 103.3 150 98.7 180 100.3C210 102 240 110 270 115.7C300 121.3 330 124.7 360 123.5C390 122.3 420 116.7 450 111.5C480 106.3 510 101.7 540 104.7C570 107.7 600 118.3 630 119.8C660 121.3 690 113.7 720 107.3C750 101 780 96 810 93C840 90 870 89 885 88.5L900 88L900 151L885 151C870 151 840 151 810 151C780 151 750 151 720 151C690 151 660 151 630 151C600 151 570 151 540 151C510 151 480 151 450 151C420 151 390 151 360 151C330 151 300 151 270 151C240 151 210 151 180 151C150 151 120 151 90 151C60 151 30 151 15 151L0 151Z" fill="#2b50aa" stroke-linecap="round" stroke-linejoin="miter"></path></svg>