<svg id="visual" viewBox="0 0 900 150" width="900" height="150" xmlns="http://www.w3.org/2000/svg" xmlns:xlink="http://www.w3.org/1999/xlink" version="1.1"><path d="M0 40L113 40L113 33L225 33L225 45L338 45L338 49L450 49L450 48L563 48L563 37L675 37L675 39L788 39L788 62L900 62L900 39L900 0L900 0L788 0L788 0L675 0L675 0L563 0L563 0L450 0L450 0L338 0L338 0L225 0L225 0L113 0L113 0L0 0Z" fill="#2b50aa"></path><path d="M0 76L113 76L113 93L225 93L225 99L338 99L338 84L450 84L450 90L563 90L563 86L675 86L675 79L788 79L788 91L900 91L900 69L900 37L900 60L788 60L788 37L675 37L675 35L563 35L563 46L450 46L450 47L338 47L338 43L225 43L225 31L113 31L113 38L0 38Z" fill="#a950a1"></path><path d="M0 109L113 109L113 108L225 108L225 117L338 117L338 121L450 121L450 111L563 111L563 102L675 102L675 117L788 117L788 121L900 121L900 102L900 67L900 89L788 89L788 77L675 77L675 84L563 84L563 88L450 88L450 82L338 82L338 97L225 97L225 91L113 91L113 74L0 74Z" fill="#e76482"></path><path d="M0 132L113 132L113 130L225 130L225 138L338 138L338 138L450 138L450 127L563 127L563 127L675 127L675 136L788 136L788 133L900 133L900 130L900 100L900 119L788 119L788 115L675 115L675 100L563 100L563 109L450 109L450 119L338 119L338 115L225 115L225 106L113 106L113 107L0 107Z" fill="#fc9366"></path><path d="M0 151L113 151L113 151L225 151L225 151L338 151L338 151L450 151L450 151L563 151L563 151L675 151L675 151L788 151L788 151L900 151L900 151L900 128L900 131L788 131L788 134L675 134L675 125L563 125L563 125L450 125L450 136L338 136L338 136L225 136L225 128L113 128L113 130L0 130Z" fill="#efcb68"></path></svg>