<svg id="visual" viewBox="0 0 960 540" width="960" height="540" xmlns="http://www.w3.org/2000/svg" xmlns:xlink="http://www.w3.org/1999/xlink" version="1.1"><rect x="0" y="0" width="960" height="540" fill="#f1f2f6"></rect><defs><linearGradient id="grad1_0" x1="43.8%" y1="0%" x2="100%" y2="100%"><stop offset="14.444444444444446%" stop-color="#00a6fb" stop-opacity="1"></stop><stop offset="85.55555555555554%" stop-color="#00a6fb" stop-opacity="1"></stop></linearGradient></defs><defs><linearGradient id="grad1_1" x1="43.8%" y1="0%" x2="100%" y2="100%"><stop offset="14.444444444444446%" stop-color="#00a6fb" stop-opacity="1"></stop><stop offset="85.55555555555554%" stop-color="#8cbdfa" stop-opacity="1"></stop></linearGradient></defs><defs><linearGradient id="grad1_2" x1="43.8%" y1="0%" x2="100%" y2="100%"><stop offset="14.444444444444446%" stop-color="#c6d6f9" stop-opacity="1"></stop><stop offset="85.55555555555554%" stop-color="#8cbdfa" stop-opacity="1"></stop></linearGradient></defs><defs><linearGradient id="grad1_3" x1="43.8%" y1="0%" x2="100%" y2="100%"><stop offset="14.444444444444446%" stop-color="#c6d6f9" stop-opacity="1"></stop><stop offset="85.55555555555554%" stop-color="#f1f2f6" stop-opacity="1"></stop></linearGradient></defs><defs><linearGradient id="grad2_0" x1="0%" y1="0%" x2="56.3%" y2="100%"><stop offset="14.444444444444446%" stop-color="#00a6fb" stop-opacity="1"></stop><stop offset="85.55555555555554%" stop-color="#00a6fb" stop-opacity="1"></stop></linearGradient></defs><defs><linearGradient id="grad2_1" x1="0%" y1="0%" x2="56.3%" y2="100%"><stop offset="14.444444444444446%" stop-color="#8cbdfa" stop-opacity="1"></stop><stop offset="85.55555555555554%" stop-color="#00a6fb" stop-opacity="1"></stop></linearGradient></defs><defs><linearGradient id="grad2_2" x1="0%" y1="0%" x2="56.3%" y2="100%"><stop offset="14.444444444444446%" stop-color="#8cbdfa" stop-opacity="1"></stop><stop offset="85.55555555555554%" stop-color="#c6d6f9" stop-opacity="1"></stop></linearGradient></defs><defs><linearGradient id="grad2_3" x1="0%" y1="0%" x2="56.3%" y2="100%"><stop offset="14.444444444444446%" stop-color="#f1f2f6" stop-opacity="1"></stop><stop offset="85.55555555555554%" stop-color="#c6d6f9" stop-opacity="1"></stop></linearGradient></defs><g transform="translate(960, 0)"><path d="M0 378C-49.7 372.9 -99.4 367.7 -144.7 349.2C-189.9 330.7 -230.9 298.9 -261.6 261.6C-292.4 224.3 -313 181.5 -330.7 137C-348.5 92.5 -363.2 46.2 -378 0L0 0Z" fill="#dde4f7"></path><path d="M0 283.5C-37.3 279.6 -74.5 275.8 -108.5 261.9C-142.5 248.1 -173.1 224.2 -196.2 196.2C-219.3 168.2 -234.8 136.1 -248.1 102.8C-261.3 69.4 -272.4 34.7 -283.5 0L0 0Z" fill="#abc9fa"></path><path d="M0 189C-24.8 186.4 -49.7 183.9 -72.3 174.6C-95 165.4 -115.4 149.5 -130.8 130.8C-146.2 112.2 -156.5 90.8 -165.4 68.5C-174.2 46.2 -181.6 23.1 -189 0L0 0Z" fill="#63b1fb"></path><path d="M0 94.5C-12.4 93.2 -24.8 91.9 -36.2 87.3C-47.5 82.7 -57.7 74.7 -65.4 65.4C-73.1 56.1 -78.3 45.4 -82.7 34.3C-87.1 23.1 -90.8 11.6 -94.5 0L0 0Z" fill="#00a6fb"></path></g><g transform="translate(0, 540)"><path d="M0 -378C48.5 -364.9 96.9 -351.7 136.2 -328.9C175.6 -306.1 205.7 -273.6 243.2 -243.2C280.7 -212.9 325.5 -184.8 349.2 -144.7C372.9 -104.5 375.5 -52.2 378 0L0 0Z" fill="#dde4f7"></path><path d="M0 -283.5C36.3 -273.6 72.7 -263.8 102.2 -246.7C131.7 -229.6 154.3 -205.2 182.4 -182.4C210.6 -159.7 244.2 -138.6 261.9 -108.5C279.7 -78.4 281.6 -39.2 283.5 0L0 0Z" fill="#abc9fa"></path><path d="M0 -189C24.2 -182.4 48.5 -175.9 68.1 -164.5C87.8 -153 102.9 -136.8 121.6 -121.6C140.4 -106.5 162.8 -92.4 174.6 -72.3C186.5 -52.2 187.7 -26.1 189 0L0 0Z" fill="#63b1fb"></path><path d="M0 -94.5C12.1 -91.2 24.2 -87.9 34.1 -82.2C43.9 -76.5 51.4 -68.4 60.8 -60.8C70.2 -53.2 81.4 -46.2 87.3 -36.2C93.2 -26.1 93.9 -13.1 94.5 0L0 0Z" fill="#00a6fb"></path></g></svg>